<svg id="Group_68" data-name="Group 68" xmlns="http://www.w3.org/2000/svg" width="164.1" height="26.877" viewBox="0 0 164.1 26.877">
  <path id="Path_20783" data-name="Path 20783" d="M319.905,320.916a.8.8,0,0,1,.3.856.758.758,0,0,1-.648.64,4.389,4.389,0,0,1-.7.045q-3.415-.012-6.829-.008c-1.831-.008-3.661,0-5.491,0v-.015H294.378a6.253,6.253,0,0,1-.647-.016.928.928,0,0,1-.916-.99c-.007-.394,0-.789,0-1.183.008-1.718-.015-3.445.03-5.163.1-3.371.037-6.749.119-10.119.059-2.113.029-4.226.067-6.347.007-.156,0-.32.022-.484a.81.81,0,0,1,.736-.736,5.251,5.251,0,0,1,.6-.015c2.745-.007,5.491.038,8.229-.022,5.364-.112,10.729-.037,16.092-.082.2,0,.394,0,.6.008a1.09,1.09,0,0,1,.313.059.914.914,0,0,1,.618.908.931.931,0,0,1-.759.8,3.911,3.911,0,0,1-.6.022q-4.408.012-8.824.015-7.154,0-14.315.016a6.259,6.259,0,0,0-.647.022c-.194.015-.283.111-.313.312a2.7,2.7,0,0,0-.022.424q-.012,4.386-.03,8.772c0,.655.038.692.715.692,4.159.007,8.325-.038,12.484.037,3.75.067,7.5.037,11.241.075a2.053,2.053,0,0,1,.484.045.88.88,0,0,1,.678.862.91.91,0,0,1-.826.908c-.1,0-.216.008-.32.008-4.129-.008-8.259.029-12.38-.045-3.75-.075-7.5-.03-11.249-.075a5.175,5.175,0,0,0-.588.015.293.293,0,0,0-.283.276,3.966,3.966,0,0,0-.037.588c-.015,2.187-.022,4.382-.037,6.57,0,.431-.008.856-.045,1.287-.067.744.112.759.692.759q6.864,0,13.727.015h9.686c.193,0,.394.007.6.007A1.081,1.081,0,0,1,319.905,320.916Z" transform="translate(-156.231 -296.43)" fill="red"/>
  <path id="Path_20784" data-name="Path 20784" d="M235.889,322.483a.9.9,0,0,1-1.221.089,1.514,1.514,0,0,1-.163-.141c-.536-.5-1.079-1-1.615-1.5-1.034-.967-2.075-1.927-3.11-2.894-1.064-.99-2.12-1.986-3.184-2.968-.8-.745-1.614-1.489-2.41-2.233-.335-.3-.647-.625-.975-.929-.3-.276-.617-.544-.922-.819a.905.905,0,0,0-.64-.238c-.38,0-.759-.022-1.131.007-.484.045-.967.052-1.451.052-1.778.015-3.556.015-5.327.037-1.295.015-2.581.1-3.876.082a1.107,1.107,0,0,0-.216.015.337.337,0,0,0-.343.342,5.182,5.182,0,0,0-.022.588q-.01,4.708-.037,9.418a4.777,4.777,0,0,1-.052.863.826.826,0,0,1-1.041.736.772.772,0,0,1-.677-.669,2.754,2.754,0,0,1-.015-.431c.008-1.972-.037-3.944.038-5.915.067-1.868.029-3.735.067-5.595a3.312,3.312,0,0,1,.015-.38.824.824,0,0,1,.766-.766c.156-.022.32-.015.484-.022,4.055-.119,8.109-.037,12.157-.126,2.835-.059,5.67-.022,8.5-.075a4.623,4.623,0,0,0,3.1-1.205,3.908,3.908,0,0,0,1.027-1.555,6.588,6.588,0,0,0,.439-2.374q-.01-.4,0-.8a5.287,5.287,0,0,0-.565-2.388,3.759,3.759,0,0,0-1.384-1.548,4.894,4.894,0,0,0-2.738-.826q-7.188.012-14.374,0c-2.083,0-4.159.008-6.242,0a3.143,3.143,0,0,1-.7-.052.87.87,0,0,1,.126-1.726c.193-.015.394-.008.6-.008H219.1c3.445,0,6.889-.015,10.334.008a6.456,6.456,0,0,1,4.679,1.971,5.551,5.551,0,0,1,1.489,2.7,9.211,9.211,0,0,1-.38,5.863,5.851,5.851,0,0,1-3.349,3.237,7.058,7.058,0,0,1-2.685.505c-1.183,0-2.366.008-3.549.008-.164,0-.327.008-.484.015a.192.192,0,0,0-.179.1.168.168,0,0,0,.037.193c.1.1.2.208.3.3,1.138,1.064,2.276,2.136,3.416,3.2,1.272,1.191,2.537,2.381,3.809,3.571.982.923,1.971,1.831,2.953,2.753a3.691,3.691,0,0,1,.372.387A.889.889,0,0,1,235.889,322.483Z" transform="translate(-144.182 -296.323)" fill="red"/>
  <path id="Path_20785" data-name="Path 20785" d="M282.473,307.309a12.939,12.939,0,0,0-1.593-4.651,9.834,9.834,0,0,0-2.738-3.072,12.062,12.062,0,0,0-7.291-2.359c-2.745.022-5.491-.015-8.236.075-2.128.067-4.263.022-6.4.029a4.055,4.055,0,0,0-.6.022.885.885,0,0,0-.8.863c.008.112,0,.216,0,.32-.045,3.839.008,7.678-.074,11.517-.082,3.69-.038,7.389-.045,11.086,0,.156-.008.32.007.484a.846.846,0,0,0,.811.849,5.176,5.176,0,0,0,.588.015h7.477v-.008c2.463,0,4.918-.007,7.373,0a14.747,14.747,0,0,0,1.823-.126,11.654,11.654,0,0,0,3.459-.967,9.956,9.956,0,0,0,4.859-4.546,14.672,14.672,0,0,0,1.577-6.369A16.129,16.129,0,0,0,282.473,307.309Zm-1.593,3.385a15.893,15.893,0,0,1-.527,3.341,8.833,8.833,0,0,1-1.526,3.117,8.355,8.355,0,0,1-2.27,2.039,10.4,10.4,0,0,1-4.144,1.414,10.867,10.867,0,0,1-1.391.082q-6.807,0-13.616.015c-.193,0-.394,0-.588-.015-.223-.022-.313-.126-.335-.35a.824.824,0,0,1,0-.268,7.786,7.786,0,0,0,.045-1.183V309.9h.038c0-1.257-.016-2.514,0-3.764q.034-3.2.082-6.406c.007-.565.052-.6.618-.618,4.657-.134,9.322-.082,13.987-.1a9.646,9.646,0,0,1,4.91,1.392,9.09,9.09,0,0,1,4.4,6.219A15.181,15.181,0,0,1,280.88,310.693Z" transform="translate(-150.858 -296.422)" fill="red"/>
  <path id="Path_20786" data-name="Path 20786" d="M161.414,322.391a.867.867,0,0,1-1.346.61.814.814,0,0,1-.35-.521,2.921,2.921,0,0,1-.067-.8c0-2.6-.008-5.2-.008-7.805q-.01-6.7-.022-13.4c0-.2,0-.394-.015-.6a.16.16,0,0,0-.268-.126c-.045.03-.089.067-.126.1-.357.334-.715.655-1.064.989-1.295,1.243-2.581,2.493-3.876,3.735-.893.856-1.778,1.727-2.686,2.56-.759.691-1.472,1.421-2.217,2.12-.327.313-.655.618-.989.915a.861.861,0,0,1-1.221.045,2.9,2.9,0,0,1-.275-.253c-.514-.477-1.027-.953-1.526-1.436-1.25-1.191-2.485-2.388-3.727-3.579-.953-.9-1.912-1.793-2.864-2.693-.283-.268-.566-.551-.849-.819-.61-.588-1.228-1.161-1.837-1.74a2.245,2.245,0,0,0-.209-.172.153.153,0,0,0-.238.119l-.022.156v.268c0,3.683-.045,7.358.03,11.033.059,3.519.015,7.03.052,10.55,0,.216,0,.431-.015.648a.961.961,0,0,1-.208.543.828.828,0,0,1-.819.313.906.906,0,0,1-.707-.67,1.532,1.532,0,0,1-.037-.372c-.008-.246-.008-.5-.008-.752q-.01-10.869-.022-21.747c0-.677-.045-1.362-.059-2.039a2.572,2.572,0,0,1,.037-.535.884.884,0,0,1,1.459-.528,1.5,1.5,0,0,1,.2.179c.446.417.893.826,1.339,1.25,1.168,1.116,2.329,2.232,3.5,3.355.916.878,1.823,1.77,2.761,2.634.692.632,1.339,1.3,2.031,1.927.744.677,1.459,1.376,2.18,2.075a2.286,2.286,0,0,0,.2.186.288.288,0,0,0,.394.008c.052-.038.111-.089.163-.134.625-.6,1.25-1.183,1.875-1.778,1.228-1.176,2.447-2.374,3.69-3.534.685-.632,1.339-1.3,2.032-1.927.878-.8,1.7-1.637,2.559-2.456.5-.468,1-.937,1.488-1.406a1.783,1.783,0,0,1,.3-.23.849.849,0,0,1,1.309.6,3.053,3.053,0,0,1,.015.372c.022,2.641.059,5.274.066,7.916.015,2.224.008,4.449.008,6.674h.015c0,3.191.008,6.383,0,9.575A3.117,3.117,0,0,1,161.414,322.391Z" transform="translate(-133.819 -296.29)" fill="red"/>
  <path id="Path_20787" data-name="Path 20787" d="M198.208,298.211c-.186.216-.41.4-.618.6s-.424.38-.632.573c-1.347,1.243-2.686,2.485-4.033,3.727-.527.484-1.049.967-1.577,1.459l-2.232,2.1c-1.049.983-2.105,1.949-3.154,2.932-.454.423-.514.32-.514,1.212-.007,3.385-.022,6.779-.029,10.163a8.254,8.254,0,0,1-.089,1.288.822.822,0,0,1-1.362.506.842.842,0,0,1-.32-.6c-.015-.179-.015-.357-.022-.536v-4.36h.022c0-1.287-.007-2.581.008-3.869.008-.773.037-1.539.059-2.313.008-.067-.007-.142.008-.216a1.329,1.329,0,0,0-.632-1.332,4.589,4.589,0,0,1-.365-.312q-1.841-1.73-3.69-3.452-1.407-1.295-2.806-2.589-1.439-1.339-2.886-2.664c-.789-.728-1.585-1.45-2.374-2.179a3.077,3.077,0,0,1-.372-.394.865.865,0,0,1,1.2-1.221c.3.231.573.484.856.737,1.131,1.049,2.255,2.1,3.385,3.147l2.813,2.589q1.4,1.295,2.8,2.589c.826.766,1.66,1.526,2.493,2.292.372.335.424.335.8-.008,1.027-.952,2.046-1.9,3.073-2.849,1.458-1.354,2.924-2.708,4.382-4.055.945-.878,1.9-1.756,2.843-2.634l1.458-1.347a3.051,3.051,0,0,1,.335-.275.832.832,0,0,1,1.161.134A.8.8,0,0,1,198.208,298.211Z" transform="translate(-138.977 -296.327)" fill="red"/>
  <path id="Path_20788" data-name="Path 20788" d="M247.512,315.782v5.6c0,.179-.008.357-.008.536a.826.826,0,0,1-.782.8.866.866,0,0,1-.922-.736,2.166,2.166,0,0,1-.022-.32c.045-1.7-.1-3.4-.089-5.111.007-2.38.045-4.769-.038-7.157-.126-3.713-.037-7.425-.089-11.137a4.3,4.3,0,0,1,.015-.536.834.834,0,0,1,.781-.811.85.85,0,0,1,.937.632,2.19,2.19,0,0,1,.075.692l.022,6.138c0,1.057-.022,2.121.015,3.177C247.49,310.3,247.474,313.044,247.512,315.782Z" transform="translate(-149.571 -296.378)" fill="red"/>
</svg>
